<svg width="186" height="63" viewBox="0 0 186 63" fill="none" xmlns="http://www.w3.org/2000/svg">
<path d="M44.6032 6.372C45.1875 6.37739 45.6584 6.85263 45.6584 7.43701V15.0453C45.6584 15.5717 45.2737 16.0192 44.7533 16.0982L22.5537 19.4703C21.9951 19.5552 21.6 20.0614 21.6533 20.6239L22.0443 24.7466C22.0981 25.3141 22.5893 25.7386 23.1586 25.7097L44.6003 24.6204C45.209 24.5895 45.7194 25.0747 45.7194 25.6841V29.5661C45.7194 30.0927 45.3346 30.5402 44.814 30.6191L23.9119 33.7882C23.3532 33.8729 22.9579 34.3792 23.0113 34.9418L24.9255 55.1247C24.9848 55.7498 24.4931 56.2903 23.8652 56.2903H12.8613C12.2731 56.2903 11.7962 55.8135 11.7962 55.2252V22.3192C11.7962 21.6692 11.219 21.1708 10.5759 21.2656L7.22033 21.7601C6.57724 21.8548 6 21.3564 6 20.7064V7.09059C6 6.49854 6.48285 6.02012 7.07488 6.02559L44.6032 6.372Z" fill="white"/>
<path fill-rule="evenodd" clip-rule="evenodd" d="M45.5972 55.2254C45.5972 55.8136 45.1203 56.2904 44.5321 56.2904H42.348C41.8847 56.2904 41.4746 55.9909 41.3335 55.5497L40.4261 52.7109C40.285 52.2697 39.8749 51.9702 39.4116 51.9702H34.8426C34.287 51.9702 33.8247 52.3973 33.7809 52.9512L33.5943 55.3094C33.5504 55.8633 33.0881 56.2904 32.5325 56.2904H30.1275C29.5893 56.2904 29.1356 55.8888 29.0703 55.3545L26.9931 38.3542C26.9227 37.7775 27.3273 37.2508 27.9026 37.1702L44.3844 34.8617C45.0251 34.772 45.5972 35.2695 45.5972 35.9165V55.2254ZM34.8833 40.7427C34.3474 40.8063 33.9437 41.2606 33.9437 41.8003V46.2565C33.9437 46.8447 34.4205 47.3215 35.0088 47.3215H37.6928C38.37 47.3215 38.8753 46.6977 38.7346 46.0352L37.7454 41.378C37.631 40.8393 37.1249 40.4767 36.5781 40.5416L34.8833 40.7427Z" fill="white"/>
<path d="M83.0596 17.9696V7.08071C83.0596 6.4925 83.5364 6.01566 84.1246 6.01566H108.539C109.232 6.01566 109.741 6.66826 109.571 7.34094L106.167 20.85C106.048 21.3232 105.623 21.6548 105.135 21.6548H101.578C100.971 21.6548 100.487 22.1614 100.514 22.7678L101.974 55.1773C102.001 55.7837 101.517 56.2903 100.91 56.2903H90.5591C89.959 56.2903 89.4773 55.7947 89.4945 55.1947L90.499 20.1302C90.5162 19.5303 90.0345 19.0347 89.4344 19.0347H84.1246C83.5364 19.0347 83.0596 18.5578 83.0596 17.9696Z" fill="white"/>
<path d="M49.502 55.2252V7.13739C49.502 6.52751 50.0131 6.04218 50.6222 6.07377L58.7318 6.49442C59.115 6.5143 59.4579 6.73872 59.6294 7.08193L68.5178 24.8675C69.0203 25.8729 70.5356 25.5153 70.5356 24.3913V7.08071C70.5356 6.4925 71.0124 6.01566 71.6006 6.01566H78.0892C78.6774 6.01566 79.1542 6.4925 79.1542 7.08072V55.2252C79.1542 55.8135 78.6774 56.2903 78.0892 56.2903H71.2095C70.7979 56.2903 70.4232 56.0532 70.247 55.6813L61.3794 36.9651C60.8929 35.9384 59.3518 36.285 59.3518 37.4211V55.2252C59.3518 55.8135 58.875 56.2903 58.2868 56.2903H50.567C49.9788 56.2903 49.502 55.8135 49.502 55.2252Z" fill="white"/>
<path d="M141.254 55.1945C141.271 55.7944 140.789 56.2901 140.189 56.2901H109.545C108.897 56.2901 108.4 55.7171 108.49 55.0759L115.297 6.93161C115.372 6.40623 115.821 6.01566 116.352 6.01566H138.808C139.384 6.01566 139.856 6.47409 139.873 7.05017L141.254 55.1945ZM124.231 17.1416C123.679 17.1416 123.219 17.5629 123.17 18.1124L120.886 43.7977C120.831 44.4207 121.322 44.9571 121.947 44.9571H129.791C130.389 44.9571 130.869 44.4657 130.856 43.8684L130.285 18.183C130.272 17.6042 129.799 17.1416 129.22 17.1416H124.231Z" fill="white"/>
<path d="M155.103 6C155.476 6 155.822 6.19526 156.015 6.51465L160.791 14.4248V15.4346C160.791 18.185 159 20.2342 157.035 22.4834C155.026 24.7862 152.798 27.4806 152.798 31.792C152.798 34.2424 153.631 36.5006 155.031 38.3125V55.2246C155.031 55.8128 154.554 56.29 153.966 56.29H146.298C145.71 56.29 145.232 55.8128 145.232 55.2246V7.06445C145.233 6.47645 145.71 6 146.298 6H155.103ZM178.943 6C179.531 6 180.009 6.47645 180.009 7.06445V55.2246C180.009 55.8128 179.532 56.29 178.943 56.29H171.275C170.687 56.29 170.21 55.8128 170.21 55.2246V40.5498C172.976 38.5893 174.777 35.3984 174.777 31.792C174.777 30.3786 174.761 27.501 171.895 23.9814L170.21 21.9131L170.116 24.5576C170.116 24.9368 169.935 25.6855 169.795 26.0215C169.651 26.3661 169.479 26.5988 169.304 26.7246C169.166 26.8234 168.957 26.9103 168.557 26.8281C168.214 26.7577 168.041 26.6329 167.93 26.5049C167.804 26.3593 167.69 26.1276 167.606 25.7451C167.523 25.3602 167.484 24.892 167.461 24.3213C167.453 24.1151 167.447 23.8823 167.44 23.6377C167.43 23.2578 167.419 22.8482 167.398 22.4619C167.329 21.1375 167.143 19.6079 166.396 18.1758C165.856 17.1393 165.043 16.197 163.853 15.4141L169.228 6.51465C169.42 6.19546 169.766 6.00017 170.139 6H178.943Z" fill="white"/>
<path fill-rule="evenodd" clip-rule="evenodd" d="M163.685 26.4527C163.842 26.2543 164.13 26.2129 164.337 26.3591C165.504 27.1795 166.578 28.3363 167.362 29.6051C168.145 30.8702 168.661 32.2829 168.661 33.6161C168.661 36.6362 166.175 39.0845 163.109 39.0845C160.043 39.0845 157.557 36.6362 157.557 33.6161C157.557 31.6377 158.631 29.0568 160.243 27.5479C160.341 27.4558 160.475 27.4095 160.611 27.4206C160.746 27.4318 160.87 27.4993 160.951 27.6063L161.181 27.9074C161.518 28.35 162.182 28.3557 162.527 27.919L163.685 26.4527Z" fill="#FFBF3A"/>
</svg>
