<svg width="2392" height="2392" viewBox="0 0 2392 2392" fill="none" xmlns="http://www.w3.org/2000/svg">
<rect width="2392" height="2392" fill="#F94144"/>
<path d="M1784.02 529.938C1809.3 503.988 1839.23 490.717 1873.16 490.717C1886.88 490.245 1900.54 492.655 1913.27 497.79C1926 502.925 1937.51 510.672 1947.06 520.531C1956.75 530.043 1964.4 541.429 1969.55 553.993C1974.69 566.557 1977.22 580.036 1976.98 593.609C1976.98 626.195 1964.34 656.099 1939.05 682.004C1927.68 694.26 1913.88 704.012 1898.52 710.64C1883.17 717.268 1866.6 720.625 1849.87 720.497C1836.19 720.706 1822.61 718.167 1809.93 713.031C1797.25 707.895 1785.73 700.267 1776.05 690.599C1766.38 680.931 1758.74 669.42 1753.6 656.749C1748.47 644.078 1745.92 630.504 1746.13 616.833C1746.13 584.429 1758.78 555.843 1784.02 529.938Z" fill="white"/>
<path d="M1849.88 752.309C1816.58 752.944 1784.28 740.924 1759.51 718.678L1721.31 1080.66H1901.59L1937.97 725.04C1912.23 743.22 1881.39 752.768 1849.88 752.309Z" fill="white"/>
<path d="M453.765 898.057C479.051 872.107 508.976 858.836 542.904 858.836C556.608 858.377 570.257 860.793 582.971 865.928C595.684 871.063 607.179 878.803 616.716 888.65C626.407 898.163 634.059 909.548 639.203 922.112C644.348 934.676 646.879 948.155 646.641 961.728C646.641 994.314 633.998 1024.22 608.712 1050.12C597.348 1062.37 583.558 1072.11 568.219 1078.74C552.881 1085.37 536.329 1088.73 519.618 1088.62C505.938 1088.83 492.355 1086.29 479.674 1081.15C466.994 1076.01 455.475 1068.39 445.8 1058.72C436.125 1049.05 428.492 1037.54 423.353 1024.87C418.213 1012.2 415.672 998.623 415.881 984.952C415.881 952.548 428.524 923.962 453.765 898.057Z" fill="white"/>
<path d="M492.328 836.886L545.538 724.631C581.922 647.371 623.353 609.65 700.485 609.65C739.051 609.65 766.975 620.285 783.621 642.19C800.266 664.096 813.546 696.045 822.187 738.584L888.677 1080.8H689.843L675.881 965.91C665.921 888.15 618.714 836.976 543.537 836.976L492.328 836.886Z" fill="white"/>
<path d="M915.282 1080.8L840.105 695.364C859.434 649.507 896.636 609.65 952.484 609.65C1016.15 609.65 1054.9 653.507 1067.55 716.633L1138.04 1080.8H915.282Z" fill="white"/>
<path d="M471.865 1620.35C509.157 1582.08 553.317 1562.45 603.435 1562.45C647.58 1562.45 683.963 1577.17 712.584 1606.62C726.913 1620.66 738.224 1637.48 745.825 1656.03C753.426 1674.59 757.157 1694.51 756.79 1714.56C756.79 1762.64 738.098 1806.77 700.805 1845.04C663.513 1883.3 619.08 1902.12 569.053 1902.12C548.857 1902.42 528.805 1898.68 510.086 1891.1C491.367 1883.51 474.361 1872.26 460.076 1857.99C445.792 1843.72 434.52 1826.72 426.928 1808.02C419.336 1789.32 415.579 1769.28 415.88 1749.1C415.88 1700.97 434.526 1658.75 471.865 1620.35Z" fill="white"/>
<path d="M528.801 1530.23L607.343 1364.39C661.326 1250.77 722.223 1194.65 836.102 1194.65C893.041 1194.65 934.291 1210.37 958.895 1242.73C984.409 1275.13 1003.05 1322.22 1015.83 1385.02L1113.98 1890.3H820.412L799.764 1720.56C785.074 1605.76 715.355 1530.23 604.205 1530.23H528.801Z" fill="white"/>
<path d="M1153.27 1890.3L1042.3 1321.26C1070.77 1253.54 1125.76 1194.65 1208.26 1194.65C1302.49 1194.65 1359.43 1259.41 1378.12 1352.62L1482.18 1890.3H1153.27Z" fill="white"/>
<path d="M1940.56 1662.71L1916 1890.3H1790.34C1696.05 1890.3 1622.4 1867.75 1569.4 1822.63C1516.42 1776.5 1489.91 1715.65 1489.91 1639.12C1489.91 1569.49 1510.51 1509.64 1551.76 1457.6C1593.96 1405.61 1649.95 1370.3 1720.62 1350.67V1352.62C1668.59 1384.02 1630.3 1444.88 1630.3 1506.69C1629.86 1527.68 1633.92 1548.53 1642.22 1567.82C1650.52 1587.11 1662.87 1604.41 1678.42 1618.53C1710.8 1647.98 1753.05 1662.71 1806.03 1662.71H1940.56Z" fill="white"/>
<path d="M1974.94 1473.33C1974.94 1521.41 1957.25 1561.63 1921.91 1592.03C1888.37 1621.7 1844.95 1637.79 1800.16 1637.16C1763.09 1637.99 1727.16 1624.25 1700.11 1598.9C1672.6 1572.4 1658.86 1542 1658.86 1505.68C1658.86 1456.65 1676.55 1417.38 1710.89 1387.98C1744.69 1358.86 1788.01 1343.14 1832.64 1343.8C1926.82 1343.8 1974.94 1397.66 1974.94 1473.33Z" fill="white"/>
<path d="M1566.91 709.317C1515.06 709.317 1472.49 723.951 1439.93 752.538C1407.22 780.646 1386.91 820.504 1383.4 863.474L1379.4 902.694L1360.89 1080.98H1497.78H1517.93L1534.8 913.602C1535.07 911.073 1536.07 908.676 1537.66 906.694C1539.45 904.623 1541.84 903.17 1544.5 902.542C1547.17 901.914 1549.96 902.143 1552.48 903.197C1555.01 904.251 1557.13 906.076 1558.55 908.41C1559.98 910.744 1560.62 913.468 1560.4 916.192L1543.85 1080.98H1693.06L1711.71 897.559C1713.51 883.451 1714.39 869.242 1714.35 855.021C1714.53 764.49 1657.36 709.317 1566.91 709.317Z" fill="white"/>
<path d="M1214.03 529.937C1239.32 503.987 1269.24 490.716 1303.17 490.716C1316.88 490.257 1330.53 492.673 1343.24 497.808C1355.95 502.943 1367.45 510.683 1376.98 520.529C1386.67 530.042 1394.33 541.428 1399.47 553.992C1404.62 566.556 1407.15 580.035 1406.91 593.608C1406.91 626.194 1394.27 656.098 1368.98 682.003C1357.62 694.247 1343.83 703.993 1328.49 710.62C1313.15 717.248 1296.6 720.611 1279.89 720.496C1266.21 720.705 1252.62 718.166 1239.94 713.03C1227.26 707.894 1215.74 700.266 1206.07 690.598C1196.39 680.93 1188.76 669.419 1183.62 656.748C1178.48 644.076 1175.94 630.503 1176.15 616.832C1176.15 584.428 1188.79 555.842 1214.03 529.937Z" fill="white"/>
<path d="M1279.88 752.309C1246.59 752.944 1214.29 740.924 1189.52 718.678L1151.18 1080.8H1331.41L1367.8 724.859C1342.13 743.066 1311.36 752.676 1279.88 752.309Z" fill="white"/>
</svg>
