<svg width="184" height="52" viewBox="0 0 184 52" fill="none" xmlns="http://www.w3.org/2000/svg">
<path d="M97.4721 8.62747C99.1627 6.89158 101.163 6.00387 103.432 6.00387C104.349 5.97229 105.263 6.13347 106.114 6.47699C106.965 6.82051 107.735 7.33873 108.373 7.99817C109.021 8.63452 109.532 9.39612 109.876 10.2366C110.22 11.077 110.39 11.9787 110.374 12.8866C110.374 15.0664 109.528 17.0668 107.838 18.7996C107.077 19.6194 106.154 20.2718 105.128 20.7152C104.101 21.1585 102.993 21.3831 101.875 21.3746C100.96 21.3885 100.052 21.2187 99.2044 20.8751C98.3566 20.5316 97.5865 20.0213 96.9396 19.3746C96.2928 18.7279 95.7824 17.9579 95.4388 17.1102C95.0952 16.2626 94.9253 15.3546 94.9393 14.4401C94.9393 12.2725 95.7846 10.3603 97.4721 8.62747Z" fill="#F94144"/>
<path d="M101.876 23.504C99.6494 23.5465 97.4901 22.7424 95.8339 21.2543L93.2798 45.4686H105.333L107.765 21.6799C106.045 22.896 103.983 23.5347 101.876 23.504Z" fill="#F94144"/>
<path d="M8.53366 33.252C10.2243 31.5161 12.225 30.6284 14.4933 30.6284C15.4096 30.5977 16.3222 30.7593 17.1722 31.1028C18.0221 31.4463 18.7907 31.964 19.4283 32.6227C20.0763 33.259 20.5878 34.0206 20.9318 34.8611C21.2758 35.7015 21.445 36.6032 21.429 37.5112C21.429 39.6909 20.5837 41.6913 18.8931 43.4241C18.1334 44.2432 17.2114 44.8951 16.1859 45.3384C15.1604 45.7818 14.0538 46.0068 12.9365 45.9991C12.0219 46.013 11.1137 45.8432 10.2659 45.4996C9.41814 45.1561 8.64799 44.6458 8.00115 43.9991C7.3543 43.3524 6.84394 42.5824 6.50033 41.7348C6.15672 40.8871 5.98685 39.9791 6.00079 39.0646C6.00079 36.8971 6.8461 34.9848 8.53366 33.252Z" fill="#F94144"/>
<path d="M11.1128 29.1598L14.6704 21.6508C17.1029 16.4826 19.8729 13.9594 25.0299 13.9594C27.6083 13.9594 29.4753 14.6707 30.5882 16.1361C31.701 17.6014 32.5889 19.7386 33.1666 22.5841L37.6121 45.476H24.3183L23.3849 37.7906C22.719 32.589 19.5628 29.1659 14.5366 29.1659L11.1128 29.1598Z" fill="#F94144"/>
<path d="M39.39 45.476L34.3638 19.693C35.656 16.6255 38.1433 13.9594 41.8772 13.9594C46.1341 13.9594 48.7248 16.8931 49.5701 21.1157L54.2831 45.476H39.39Z" fill="#F94144"/>
<path d="M110.001 33.252C111.692 31.5161 113.692 30.6284 115.961 30.6284C116.877 30.5977 117.789 30.7593 118.639 31.1028C119.489 31.4463 120.258 31.964 120.896 32.6227C121.544 33.259 122.055 34.0206 122.399 34.8611C122.743 35.7015 122.912 36.6032 122.896 37.5112C122.896 39.6909 122.051 41.6913 120.36 43.4241C119.601 44.2432 118.679 44.8951 117.653 45.3384C116.628 45.7818 115.521 46.0068 114.404 45.9991C113.489 46.013 112.581 45.8432 111.733 45.4996C110.885 45.1561 110.115 44.6458 109.468 43.9991C108.822 43.3524 108.311 42.5824 107.968 41.7348C107.624 40.8871 107.454 39.9791 107.468 39.0646C107.468 36.8971 108.313 34.9848 110.001 33.252Z" fill="#F94144"/>
<path d="M112.58 29.1598L116.137 21.6508C118.57 16.4826 121.34 13.9594 126.497 13.9594C129.075 13.9594 130.942 14.6707 132.055 16.1361C133.168 17.6014 134.056 19.7386 134.633 22.5841L139.079 45.476H125.785L124.852 37.7906C124.186 32.589 121.03 29.1659 116.003 29.1659L112.58 29.1598Z" fill="#F94144"/>
<path d="M140.858 45.476L135.832 19.693C137.124 16.6255 139.612 13.9594 143.345 13.9594C147.602 13.9594 150.193 16.8931 151.038 21.1157L155.751 45.476H140.858Z" fill="#F94144"/>
<path d="M175.996 35.3842L174.884 45.6975H169.193C164.922 45.6975 161.587 44.6754 159.186 42.6311C156.787 40.5408 155.586 37.7833 155.586 34.3153C155.586 31.1604 156.519 28.4482 158.387 26.0902C160.299 23.7343 162.834 22.1342 166.035 21.2445V21.3331C163.679 22.7561 161.944 25.5136 161.944 28.3143C161.924 29.2657 162.109 30.2103 162.484 31.0846C162.86 31.9588 163.419 32.7424 164.124 33.3824C165.59 34.7169 167.504 35.3842 169.903 35.3842H175.996Z" fill="#F94144"/>
<path d="M177.553 26.8019C177.553 28.9807 176.752 30.8032 175.151 32.1809C173.632 33.5251 171.666 34.2543 169.637 34.2259C167.958 34.2634 166.331 33.6408 165.106 32.4919C163.86 31.2913 163.238 29.9136 163.238 28.2681C163.238 26.0461 164.039 24.2668 165.594 22.9344C167.125 21.6149 169.087 20.9027 171.108 20.9326C175.374 20.9326 177.553 23.373 177.553 26.8019Z" fill="#F94144"/>
<path d="M82.9563 20.6267C79.4899 20.6267 76.6439 21.6056 74.4668 23.5179C72.2797 25.3981 70.9218 28.0643 70.6873 30.9387L70.4197 33.5623L69.1821 45.4886H78.3345H79.6815L80.8096 34.2919C80.828 34.1228 80.8945 33.9624 81.0011 33.8298C81.1205 33.6913 81.2806 33.5941 81.4585 33.5521C81.6365 33.5101 81.8232 33.5254 81.9919 33.5959C82.1606 33.6664 82.3027 33.7885 82.3978 33.9446C82.4929 34.1008 82.5362 34.283 82.5215 34.4652L81.4147 45.4886H91.391L92.6377 33.2188C92.7578 32.2751 92.8167 31.3246 92.8141 30.3733C92.8262 24.3174 89.0041 20.6267 82.9563 20.6267Z" fill="#F94144"/>
<path d="M59.3642 8.62782C61.0548 6.89193 63.0556 6.00423 65.3239 6.00423C66.2402 5.97351 67.1527 6.1351 68.0027 6.4786C68.8527 6.82209 69.6213 7.33986 70.2589 7.99853C70.9068 8.63487 71.4184 9.39648 71.7624 10.2369C72.1063 11.0774 72.2755 11.979 72.2596 12.887C72.2596 15.0667 71.4143 17.0671 69.7237 18.8C68.964 19.619 68.042 20.271 67.0165 20.7143C65.9909 21.1576 64.8843 21.3826 63.7671 21.3749C62.8524 21.3889 61.9443 21.219 61.0965 20.8755C60.2487 20.5319 59.4786 20.0217 58.8317 19.3749C58.1849 18.7282 57.6745 17.9582 57.3309 17.1106C56.9873 16.263 56.8174 15.355 56.8314 14.4405C56.8314 12.2729 57.6767 10.3607 59.3642 8.62782Z" fill="#F94144"/>
<path d="M63.7671 23.504C61.5409 23.5465 59.3815 22.7424 57.7254 21.2543L55.1621 45.4777H67.2122L69.6447 21.6678C67.929 22.8857 65.8712 23.5286 63.7671 23.504Z" fill="#F94144"/>
</svg>
